/* XPM */
static char * BaseX_16px_xpm[] = {
"16 16 96 2",
"  	c None",
". 	c #A2A2A2",
"+ 	c #DEDEDE",
"@ 	c #FFFFFF",
"# 	c #FDFDFD",
"$ 	c #EAEAEA",
"% 	c #AFAFAF",
"& 	c #B3B3B3",
"* 	c #E5E5E5",
"= 	c #FAFAFA",
"- 	c #BFBFBF",
"; 	c #CCCCCC",
"> 	c #D1D2D2",
", 	c #CBCCCC",
"' 	c #F2F2F2",
") 	c #979999",
"! 	c #DBDBDB",
"~ 	c #FEF9F9",
"{ 	c #B4B5B5",
"] 	c #BDB3B3",
"^ 	c #FBEDED",
"/ 	c #A1A4A4",
"( 	c #EC3B3B",
"_ 	c #EC6363",
": 	c #EB3E3E",
"< 	c #D16868",
"[ 	c #F13939",
"} 	c #F3C5C5",
"| 	c #C38D8D",
"1 	c #E65A5A",
"2 	c #E36161",
"3 	c #EE7E7E",
"4 	c #EA4545",
"5 	c #EA5757",
"6 	c #F16464",
"7 	c #E82020",
"8 	c #EE7272",
"9 	c #E93C3C",
"0 	c #EA3E3E",
"a 	c #E85656",
"b 	c #EF6D6D",
"c 	c #FEC3C3",
"d 	c #E23535",
"e 	c #E65C5C",
"f 	c #F49898",
"g 	c #E62525",
"h 	c #EA5B5B",
"i 	c #F17777",
"j 	c #EB2222",
"k 	c #F18A8A",
"l 	c #E73030",
"m 	c #EE6A6A",
"n 	c #E41D1D",
"o 	c #E15757",
"p 	c #E72121",
"q 	c #F8AEAE",
"r 	c #F0A6A6",
"s 	c #D35C5C",
"t 	c #EC3131",
"u 	c #EA2929",
"v 	c #ED6B6B",
"w 	c #F28888",
"x 	c #EC4343",
"y 	c #EB5858",
"z 	c #EA4A4A",
"A 	c #E76B6B",
"B 	c #EE8282",
"C 	c #FCD4D4",
"D 	c #E26161",
"E 	c #E56D6D",
"F 	c #F06B6B",
"G 	c #E96E6E",
"H 	c #DD6F6F",
"I 	c #EC4D4D",
"J 	c #E94C4C",
"K 	c #E95050",
"L 	c #F8C9C9",
"M 	c #A9AEAE",
"N 	c #FBFFFF",
"O 	c #BABFBF",
"P 	c #D3D4D4",
"Q 	c #FFFEFE",
"R 	c #C7CECE",
"S 	c #9B9B9B",
"T 	c #F6F6F6",
"U 	c #E2E2E2",
"V 	c #B8B8B8",
"W 	c #CACACA",
"X 	c #F5F5F5",
"Y 	c #D1D1D1",
"Z 	c #929292",
"` 	c #D5D5D5",
" .	c #F9F9F9",
"..	c #FCFCFC",
"+.	c #D8D8D8",
"@.	c #939393",
"                                ",
"                                ",
"                                ",
"    . + @ # $ %   & * @ = -     ",
"        ; @ >       , ' )       ",
"          ! ~ {   ] ^ /         ",
"  ( _ :   < [ } | 1 2 3 4 5 6   ",
"  7 8 9   0 a b c d e f g h i   ",
"  j k l m n o p q r s t u v w   ",
"  x y z A B C D E F G H I J K L ",
"        M N O     P Q R         ",
"      S T U         T @ V       ",
"    W X = ' Y   Z ` T  ...+.@.  ",
"                                ",
"                                ",
"                                "};
