/* XPM */
static char * basex32x32_xpm[] = {
"32 32 254 2",
"  	c None",
". 	c #9F9F9F",
"+ 	c #D2D2D2",
"@ 	c #D1D1D1",
"# 	c #D3D3D3",
"$ 	c #868686",
"% 	c #6B6B6B",
"& 	c #BCBCBC",
"* 	c #FCFCFC",
"= 	c #FFFFFF",
"- 	c #FAFAFA",
"; 	c #9B9B9B",
"> 	c #9C9C9C",
", 	c #FBFBFB",
"' 	c #7D7D7D",
") 	c #313131",
"! 	c #484848",
"~ 	c #6A6A6A",
"{ 	c #BFBFBF",
"] 	c #FDFDFD",
"^ 	c #7A7A7A",
"/ 	c #464646",
"( 	c #454545",
"_ 	c #5B5B5B",
": 	c #E9E9E9",
"< 	c #727272",
"[ 	c #B0B0B0",
"} 	c #FEFEFE",
"| 	c #6E6E6E",
"1 	c #4A4A4A",
"2 	c #EFEFEF",
"3 	c #B5B5B5",
"4 	c #C5C5C5",
"5 	c #EAEAEA",
"6 	c #4F4F4F",
"7 	c #4D4D4D",
"8 	c #E1E1E1",
"9 	c #B1B1B1",
"0 	c #3A3A3A",
"a 	c #DCDCDC",
"b 	c #DCDDDD",
"c 	c #3B3B3B",
"d 	c #515656",
"e 	c #E4EBEB",
"f 	c #B1B4B4",
"g 	c #F6B8B8",
"h 	c #F39D9D",
"i 	c #F39999",
"j 	c #F39696",
"k 	c #F39A9A",
"l 	c #F7ACAC",
"m 	c #595D5D",
"n 	c #F1D5D5",
"o 	c #F8BEBE",
"p 	c #F7C0C0",
"q 	c #FFF9F9",
"r 	c #C9C9C9",
"s 	c #525A5A",
"t 	c #E3C6C6",
"u 	c #F8ADAD",
"v 	c #F39B9B",
"w 	c #F2AFAF",
"x 	c #AC9090",
"y 	c #F8C3C3",
"z 	c #F49D9D",
"A 	c #F39C9C",
"B 	c #F9A8A8",
"C 	c #F04D4D",
"D 	c #E80606",
"E 	c #ED1F1F",
"F 	c #F53636",
"G 	c #F01F1F",
"H 	c #EA0C0C",
"I 	c #F05353",
"J 	c #E74444",
"K 	c #E00000",
"L 	c #DF0000",
"M 	c #C2C4C4",
"N 	c #D68383",
"O 	c #E71717",
"P 	c #E53131",
"Q 	c #E14747",
"R 	c #E30909",
"S 	c #EF1E1E",
"T 	c #F7B8B8",
"U 	c #EE7272",
"V 	c #EA0606",
"W 	c #EB1111",
"X 	c #F42828",
"Y 	c #F52A2A",
"Z 	c #FF4D4D",
"` 	c #E94747",
" .	c #E20000",
"..	c #F08383",
"+.	c #F7C8C8",
"@.	c #E81616",
"#.	c #EC0606",
"$.	c #F6B9B9",
"%.	c #F7B2B2",
"&.	c #E90A0A",
"*.	c #EE5959",
"=.	c #E41C1C",
"-.	c #E73636",
";.	c #FFFCFC",
">.	c #E82E2E",
",.	c #E10101",
"'.	c #E3AFAF",
").	c #9DBABA",
"!.	c #FAB4B4",
"~.	c #EC6161",
"{.	c #F6ADAD",
"].	c #EF7878",
"^.	c #EA5C5C",
"/.	c #E10000",
"(.	c #EC5E5E",
"_.	c #F19191",
":.	c #EE7373",
"<.	c #E71D1D",
"[.	c #F27070",
"}.	c #ED6565",
"|.	c #E50000",
"1.	c #F3B8B8",
"2.	c #EB5656",
"3.	c #ED6D6D",
"4.	c #DE0000",
"5.	c #E11010",
"6.	c #EA4343",
"7.	c #F18383",
"8.	c #FBC8C8",
"9.	c #EC6464",
"0.	c #E73737",
"a.	c #EF7979",
"b.	c #ED7070",
"c.	c #F3A2A2",
"d.	c #E62222",
"e.	c #F14242",
"f.	c #ED2F2F",
"g.	c #E62323",
"h.	c #F48686",
"i.	c #D48B8B",
"j.	c #E40101",
"k.	c #EC6060",
"l.	c #F5AAAA",
"m.	c #E95050",
"n.	c #E81F1F",
"o.	c #E80E0E",
"p.	c #F18A8A",
"q.	c #EE7575",
"r.	c #E31A1A",
"s.	c #E94343",
"t.	c #EF8383",
"u.	c #E30000",
"v.	c #F18686",
"w.	c #EB4949",
"x.	c #F18989",
"y.	c #F29595",
"z.	c #E62525",
"A.	c #E16262",
"B.	c #E15959",
"C.	c #E21111",
"D.	c #FADADA",
"E.	c #F8C9C9",
"F.	c #F9CDCD",
"G.	c #FEFFFF",
"H.	c #A9A5A5",
"I.	c #D87474",
"J.	c #E40404",
"K.	c #EE6969",
"L.	c #EC6363",
"M.	c #E94545",
"N.	c #EC5F5F",
"O.	c #F29898",
"P.	c #F18B8B",
"Q.	c #E52121",
"R.	c #F38A8A",
"S.	c #EA4242",
"T.	c #E73D3D",
"U.	c #EB4545",
"V.	c #EA4545",
"W.	c #E42323",
"X.	c #E52828",
"Y.	c #F5A0A0",
"Z.	c #DBC9C9",
"`.	c #CF7575",
" +	c #EE4E4E",
".+	c #E83B3B",
"++	c #F08080",
"@+	c #F08686",
"#+	c #FCEFEF",
"$+	c #F36363",
"%+	c #ED2525",
"&+	c #EE2525",
"*+	c #F32626",
"=+	c #EB2F2F",
"-+	c #EC6666",
";+	c #E92525",
">+	c #E73939",
",+	c #FEF8F8",
"'+	c #FAB6B6",
")+	c #EC2525",
"!+	c #F35757",
"~+	c #FFC3C3",
"{+	c #E73838",
"]+	c #E72121",
"^+	c #E71B1B",
"/+	c #E64646",
"(+	c #FAD5D5",
"_+	c #F08282",
":+	c #ED2222",
"<+	c #F22222",
"[+	c #F32323",
"}+	c #F42E2E",
"|+	c #FFF1F1",
"1+	c #9D8D8D",
"2+	c #F9F0F0",
"3+	c #CFCFCF",
"4+	c #8D8B8B",
"5+	c #A0A3A3",
"6+	c #FCFAFA",
"7+	c #FCE5E5",
"8+	c #FBDBDB",
"9+	c #FCE8E8",
"0+	c #D3D5D5",
"a+	c #CBCDCD",
"b+	c #414141",
"c+	c #8D8E8E",
"d+	c #A2A2A2",
"e+	c #C8C8C8",
"f+	c #EBEBEB",
"g+	c #AAAAAA",
"h+	c #8A8A8A",
"i+	c #909090",
"j+	c #E6E6E6",
"k+	c #7F7F7F",
"l+	c #3C3C3C",
"m+	c #5E5E5E",
"n+	c #BEBEBE",
"o+	c #666666",
"p+	c #5C5C5C",
"q+	c #383838",
"r+	c #515151",
"s+	c #5D5D5D",
"t+	c #767676",
"u+	c #EEEEEE",
"v+	c #A5A5A5",
"w+	c #6D6D6D",
"x+	c #2F2F2F",
"y+	c #A6A6A6",
"z+	c #999999",
"A+	c #828282",
"B+	c #7C7C7C",
"C+	c #BDBDBD",
"D+	c #737373",
"E+	c #626262",
"                                                                ",
"                                                                ",
"                                                                ",
"                                                                ",
"                                                                ",
"        . + @ @ @ @ @ @ @ + # $     $ # + @ @ @ @ @ @ # %       ",
"        & * = = = = = = = = - ;     > - = = = = = = = , '       ",
"        ) ! ~ { = = = = ] ^ /         ( _ : = = = # < (         ",
"                [ = = = } |             1 2 = = 3               ",
"                  4 = = = 5 6         7 8 = = 9                 ",
"                  0 a = = = b c     d e = = f                   ",
"  g h i j k l       m n o p q r   s t u v w x   y z A i i i B   ",
"  C D E F G H I       J K L v = M N O P Q R S T U V W X Y Y Z   ",
"  `  ...  +.@.#.$.  %.&.*.=.-.;.= >.,.'.).!.~.{.].L ^.          ",
"  ` /.(._.:.<.[.    }.|.1.2.K y = 3.4.5.6.7.8.  9./.0.a.b.b.c.  ",
"  ` L d.e.f.g.h.    E f.  i.j.k.= = l.m.n.|.o.p.q.L r.s.6.6.t.  ",
"  ` u.v.    w.u.x.y. .z.A.B./.C.D.E.F.G.H.I.J.z.K.K L.          ",
"  M.K N.O.P.Q.L R.S.L T.U.V.W.4.a.X.L Y.Z.`.u. +U 4..+x.++++@+#+",
"  $+%+&+Y *+=+-+o ;+>+,+= = '+)+!+~+{+C.]+^+/+(+_+&+:+<+[+[+}+|+",
"                  1+2+= = 3+4+    5+6+7+8+9+0+                  ",
"                  a+= = a b+        c+= = = = d+                ",
"                e+= = f+7             g+= = = = h+              ",
"              { = = = i+                j+= = = ] k+            ",
"      l+m+^ 3+= = = = n+o+p+q+    r+s+t+u+= = = = } v+w+s+x+    ",
"      y+= = = = = = = = = = z+    f+= = = = = = = = = = = A+    ",
"      B+n+C+C+C+C+C+C+C+C+n+D+    g+n+C+C+C+C+C+C+C+C+C+n+E+    ",
"                                                                ",
"                                                                ",
"                                                                ",
"                                                                ",
"                                                                ",
"                                                                "};
