<?xml version="1.0" encoding="UTF-8" standalone="no"?>
<svg
   xmlns:dc="http://purl.org/dc/elements/1.1/"
   xmlns:cc="http://creativecommons.org/ns#"
   xmlns:rdf="http://www.w3.org/1999/02/22-rdf-syntax-ns#"
   xmlns:svg="http://www.w3.org/2000/svg"
   xmlns="http://www.w3.org/2000/svg"
   xmlns:sodipodi="http://sodipodi.sourceforge.net/DTD/sodipodi-0.dtd"
   xmlns:inkscape="http://www.inkscape.org/namespaces/inkscape"
   viewBox="0 0 82.088621 73.135418"
   height="73.135414"
   width="82.088623"
   xml:space="preserve"
   version="1.1"
   id="svg2"
   inkscape:version="0.48.5 r10040"
   sodipodi:docname="basex.svg"><sodipodi:namedview
     pagecolor="#ffffff"
     bordercolor="#666666"
     borderopacity="1"
     objecttolerance="10"
     gridtolerance="10"
     guidetolerance="10"
     inkscape:pageopacity="0"
     inkscape:pageshadow="2"
     inkscape:window-width="2498"
     inkscape:window-height="1417"
     id="namedview3026"
     showgrid="false"
     fit-margin-top="1"
     fit-margin-left="1"
     fit-margin-right="1"
     fit-margin-bottom="1"
     inkscape:zoom="7.59107"
     inkscape:cx="92.212069"
     inkscape:cy="-8.8800238"
     inkscape:window-x="-8"
     inkscape:window-y="-8"
     inkscape:window-maximized="1"
     inkscape:current-layer="g12" /><metadata
     id="metadata8"><rdf:RDF><cc:Work
         rdf:about=""><dc:format>image/svg+xml</dc:format><dc:type
           rdf:resource="http://purl.org/dc/dcmitype/StillImage" /><dc:title /></cc:Work></rdf:RDF></metadata><defs
     id="defs6" /><g
     transform="matrix(1.25,0,0,-1.25,-4.1804093,163.0317)"
     id="g10"><g
       transform="scale(0.1,0.1)"
       id="g12"><path
         id="path14"
         style="fill:#4f4c4c;fill-opacity:1;fill-rule:nonzero;stroke:none"
         d="m 493.23291,1111.6167 c 3.47269,-0.9434 8.24049,-2.2912 12.31024,-4.7334 0,0 61.05511,66.7922 74.71754,80.5117 9.59708,9.6366 20.31366,18.0527 32.04878,25.0463 8.9078,5.3123 18.18878,9.4303 28.91852,9.1185 7.12976,-0.2106 20.70878,-0.1755 27.84731,-0.1844 5.58879,-0.01 13.06098,7.5338 13.06537,13.162 0.0176,16.1517 0.0132,32.3034 0,48.4595 -0.005,5.7337 -7.19122,12.9469 -12.9161,12.9513 l -250.72368,0 c -5.70732,0 -13.48112,-7.2615 -13.49473,-12.7317 -0.0413,-16.4459 -0.0294,-32.8961 0,-49.342 -0.0207,-6.8576 3.6079,-12.4156 11.59112,-12.4507 l 44.10482,-0.04 c 13.16985,0.07 13.92497,-10.8351 9.06058,-16.279 l -95.97553,-98.7581 -77.37804,94.6664 c -8.29843,11.1117 -2.19511,20.3707 4.93903,20.5771 l 39.32384,-0.08 c 9.07683,0 13.69361,6.3614 13.72785,13.2717 0.009,15.9585 0.007,31.9169 0.002,47.8755 -0.004,6.1376 -7.07926,13.2936 -13.17424,13.2849 -13.01794,-0.014 -26.03765,-0.08 -39.05779,-0.075 -80.17857,0.017 -166.10703,0.3599 -246.287348,0.3863 -6.124037,0 -14.37462,-7.1605 -14.378045,-13.263 -0.0069,-15.5678 0.133771,-31.456 0,-47.0238 0,-8.7234 5.60959,-14.2551 13.856704,-14.2595 8.61414,0 22.976554,-0.3951 31.591089,-0.4434 11.260094,-0.061 21.92707,-2.5859 32.50975,-6.5371 14.83945,-5.5405 22.95789,-14.9005 31.92716,-25.2966 10.53658,-12.2136 85.00081,-105.019 90.98251,-112.4666 l 5.82234,14.3144 c 0,0 -89.29534,111.898 -99.007,120.5073 -9.01185,7.9903 -20.59945,12.6395 -32.17915,16.3318 -11.93752,3.8062 -24.315807,4.7678 -36.764779,4.9697 -4.30595,0.07 -14.364171,0.2985 -18.672097,0.3205 -4.539467,0.017 -7.197627,2.6956 -7.202765,7.2746 -0.0137,12.2356 -0.01198,24.4757 0,36.7113 0.0034,4.7765 2.639283,7.4326 7.394838,7.4238 8.015442,-0.014 21.77973,-0.4127 29.793679,-0.4127 75.578904,-0.01 151.158244,0 226.737164,-0.014 5.87018,0 11.7439,-0.2854 17.60706,-0.1186 4.19664,0.1186 6.68503,-2.8756 6.71224,-6.0585 0.11503,-12.9205 0.0878,-25.8453 0.0224,-38.7659 -0.0189,-3.477 -1.79737,-6.6555 -6.41371,-6.6555 l -35.90252,-0.022 c -14.54093,0 -26.40995,-19.1371 -15.78249,-34.6215 11.09941,-13.917 88.59202,-110.793 88.59202,-110.793 18.58654,19.5757 104.14578,105.5116 107.49992,113.0452 6.65122,8.2712 5.15414,29.9811 -13.82048,32.5757 l -43.18638,-0.1801 c -4.03859,0.049 -6.85975,2.7659 -6.87512,6.7566 -0.0448,12.6308 -0.0396,25.2571 -0.002,37.8879 0.0101,3.9248 2.86902,6.7126 6.82024,6.7653 0,0 166.88103,0.061 239.22345,0 5.42195,0 7.61707,-2.1425 7.61707,-7.5337 0.005,-12.0424 0.009,-24.0848 0,-36.1273 -0.005,-4.8029 -2.58586,-7.3581 -7.33171,-7.4282 -6.54585,-0.1011 -19.55414,0.07 -26.05609,-0.5181 -5.01804,-0.461 -10.08878,-1.4664 -14.87853,-3.0204 -9.16244,-2.9811 -17.3239,-8.0299 -25.16926,-13.5747 -19.06683,-13.4737 -35.04731,-30.2883 -50.86974,-47.239 -13.47805,-14.4378 -50.42633,-54.4298 -52.86731,-57.1549"
         inkscape:connector-curvature="0" /><path
         id="path16"
         style="fill:#4f4c4c;fill-opacity:1;fill-rule:nonzero;stroke:none"
         d="M 197.92543,904.7538 102.12902,805.18442 C 93.926295,795.97369 84.6642,791.83369 73.870349,791.1273 l -13.133147,-0.062 c -6.271506,-0.45614 -7.423944,-4.68878 -7.425656,-9.64492 -0.0086,-12.13477 -0.0086,-22.55303 0.0017,-34.69135 0.0034,-4.78124 2.608418,-7.42399 7.341627,-7.42913 82.601937,-0.12173 234.101297,-0.0566 239.858227,0.0926 4.21507,0 6.58537,2.59471 6.58537,6.70372 0.0396,12.62708 0.0413,25.2525 0.002,37.88279 0.0443,4.15361 -2.32903,6.7759 -6.58712,6.8018 l -43.41555,0.003 c -20.96825,0 -31.59438,23.0198 -19.94444,39.92575 0,0 76.5992,89.34143 82.80393,96.0348 1.47161,-4.3301 4.284,-12.2378 4.284,-12.2378 L 249.5694,827.15258 c -11.40936,-13.45873 -0.10317,-24.96599 9.77181,-24.96599 l 46.66828,0.0619 c 6.6354,0.14049 12.85858,-5.63707 12.85858,-12.67507 0.0536,-16.64034 0.0979,-32.85667 -0.0891,-49.49674 0,-6.54931 -5.93165,-12.48474 -12.39891,-12.48474 0,0 -241.394685,-0.0172 -251.574561,-0.0274 -7.362217,0 -13.117562,4.94418 -13.117562,13.36107 -0.01198,16.05353 -0.123454,32.0435 -0.114893,48.09906 0.0034,5.94395 4.702345,12.2839 13.042094,13.13122 10.269041,0.0927 -2.188272,-0.14093 8.077389,0.0927 19.591545,-0.91756 24.557787,3.78834 36.785491,16.80453 l 83.114322,85.70061 15.33336,0"
         inkscape:connector-curvature="0" /><path
         id="path18"
         style="fill:#4f4c4c;fill-opacity:1;fill-rule:nonzero;stroke:none"
         d="m 371.78607,904.7538 13.52721,0 67.4776,-80.35329 c 9.65327,-12.3976 5.40219,-34.0055 -17.4442,-33.91814 l -47.87252,0.15762 c -3.33877,-0.13171 -5.87721,-1.43518 -5.88907,-6.77064 0.079,1.23498 0.11503,-38.19494 0.11503,-38.19494 0.0101,-4.35077 1.93258,-6.99694 6.32809,-7.0055 l 275.62514,0.21095 c 4.3244,-0.0138 6.69513,2.15394 6.69951,6.94892 0.009,12.1435 -0.0395,25.1873 -0.0483,37.32584 0,5.59405 -1.47073,7.65175 -6.18145,7.72726 -14.14976,0.0259 -29.73512,-0.0755 -35.03415,1.25035 -14.27706,3.75409 -18.72438,7.98629 -27.92633,19.47116 0,0 -87.83998,105.84963 -88.5029,106.71715 4.10926,2.05112 6.82244,4.2515 10.22927,7.31765 3.06438,-3.76594 88.09899,-107.89328 88.09899,-107.89328 8.98683,-10.28986 18.00878,-15.23722 32.9356,-15.51864 l 25.41512,0 c 9.87366,-0.009 12.74488,-5.45707 12.75804,-15.59414 0.0439,-16.54212 0.079,-30.85498 -0.0526,-47.39728 0.005,-7.35023 -4.61853,-12.06975 -11.66926,-12.0646 0,0 -278.86383,0.0617 -286.69427,0.0652 -9.30863,0 -14.3214,4.59261 -14.3214,14.14653 -0.0118,16.15131 -0.0136,34.08097 0,50.23223 0,6.28683 5.02507,10.67707 12.16229,10.61209 l 46.91939,0.0342 c 16.91253,0.26737 17.4442,9.47502 10.00493,20.0116 l -66.65969,82.48169"
         inkscape:connector-curvature="0" /><g
         transform="matrix(4.3902427,0,0,4.3902427,23.248656,727.17025)"
         id="g20"><g
   transform="matrix(1,0,0,-1,0,42.7367)"
   style="font-size:70.24369812px;font-variant:normal;font-weight:600;writing-mode:lr-tb;fill:#aa1818;fill-opacity:1;fill-rule:nonzero;stroke:none;font-family:Metric Semibold;-inkscape-font-specification:Metric-Semibold"
   id="text22"><path
     d="m 29.501973,-22.266966 c 1.619943,-0.582407 2.963334,-1.665316 4.030179,-3.24873 1.066778,-1.583363 1.61994,-3.544305 1.659488,-5.882833 -0.04394,-3.869173 -1.343428,-6.7901 -3.898476,-8.762789 -2.555111,-1.97261 -6.102368,-2.961861 -10.641783,-2.967757 l -16.5070562,0 0,43.129075 17.9119122,0 c 4.536488,-0.01317042 8.072038,-1.0580311 10.606662,-3.1345852 2.534559,-2.0765478 3.822342,-5.1057651 3.863354,-9.0876608 -0.03808,-2.394095 -0.699538,-4.48967 -1.98436,-6.286731 -1.284891,-1.797024 -2.964863,-3.049686 -5.03992,-3.757989 z m -16.717785,-3.160925 0,-10.114963 7.305251,0 c 2.146772,-0.0073 3.771134,0.393688 4.873092,1.202909 1.101909,0.809289 1.655071,2.070731 1.659488,3.78433 -0.0044,1.719514 -0.557579,3.00437 -1.659487,3.854572 -1.101957,0.850256 -2.72632,1.27464 -4.873093,1.273152 z m 0,7.024279 8.499379,0 c 2.113113,0.01465 3.716988,0.494643 4.81163,1.439976 1.094589,0.945367 1.644824,2.268272 1.650707,3.968719 -0.0059,1.669741 -0.556116,2.983866 -1.650707,3.9423764 -1.094643,0.958529 -2.698518,1.4473014 -4.81163,1.4663189 l -8.499379,0 z"
     id="path3029"
     inkscape:connector-curvature="0" /><path
     d="M 55.112494,-43.129075 38.605438,0 l 8.991077,0 3.793111,-10.395933 16.155843,0 L 71.408823,0 80.540386,0 64.033329,-43.129075 z m 4.355054,10.81739 5.268209,14.32953 -10.536419,0 z"
     id="path3031"
     inkscape:connector-curvature="0" /><path
     d="m 84.087721,-2.9501973 c 1.57168,1.0126685 3.556037,1.8672879 5.953078,2.56386089 2.397024,0.69657371 5.048686,1.0594948 7.954996,1.08876435 4.676975,-0.001463 8.546175,-1.06973824 11.607625,-3.20482804 3.06138,-2.1350847 4.64769,-5.3282017 4.75895,-9.5793609 0.0131,-3.175544 -0.83856,-5.797939 -2.55509,-7.867192 -1.71658,-2.069214 -4.37703,-3.70821 -7.98133,-4.916996 l -6.743312,-2.318012 c -1.520479,-0.459478 -2.694118,-1.033127 -3.52092,-1.72095 -0.826827,-0.687764 -1.245357,-1.682869 -1.25559,-2.985317 0.04243,-1.469214 0.695101,-2.552123 1.958019,-3.248732 1.262892,-0.696538 2.881401,-1.041897 4.855532,-1.036079 2.481891,0.01613 4.770631,0.422956 6.866231,1.220468 2.09555,0.797583 4.0682,1.889272 5.91796,3.275071 l 0,-8.780349 c -1.75171,-1.062382 -3.70973,-1.887735 -5.87406,-2.476061 -2.16437,-0.58824 -4.56141,-0.886771 -7.191102,-0.895593 -4.325797,0.01468 -7.931591,1.074172 -10.81739,3.178486 -2.885813,2.104395 -4.384325,5.165807 -4.495539,9.184245 0.04244,3.526801 1.0112,6.25456 2.906295,8.183285 1.895085,1.928771 4.461872,3.392162 7.700367,4.390175 l 6.321849,2.107284 c 1.62435,0.557567 2.87115,1.198531 3.74043,1.922895 0.86923,0.724394 1.30825,1.769255 1.31705,3.134586 -0.0468,1.671203 -0.77854,2.8770362 -2.19508,3.6175033 -1.41659,0.7404833 -3.23705,1.1034044 -5.461381,1.0887643 -2.514122,-0.019017 -4.949203,-0.455107 -7.305251,-1.3082725 -2.356066,-0.8531489 -4.510176,-2.0092271 -6.462337,-3.4682371 z"
     id="path3033"
     inkscape:connector-curvature="0" /><path
     d="m 120.78993,-43.129075 0,43.129075 29.29125,0 0,-7.9374357 -20.44066,0 0,-10.2554483 18.5441,0 0,-7.656464 -18.5441,0 0,-9.412534 20.44066,0 0,-7.867193 z"
     id="path3035"
     inkscape:connector-curvature="0" /></g>
</g></g></g></svg>